<svg id="Layer_1" data-name="Layer 1" xmlns="http://www.w3.org/2000/svg" viewBox="0 0 272.49 283">
    <defs>
        <style>
        .cls-1 {
            fill: #f8a41a;
        }
        </style>
    </defs>
    <title>herestatic</title>
    <ellipse class="cls-1" cx="136.64" cy="263.11" rx="95.86" ry="19.89" />
    <path class="cls-1" d="M177.13,275.15c27.88-1.62,55.81-1.06,83.71-.52,13.78.27,27.55.5,41.34.52,12.08,0,24.87.22,36.83,3,25.9-49.69,47.37-99.93,47.37-129.85a136.25,136.25,0,0,0-272.5,0c0,30,21.57,80.39,47.54,130.19A50.65,50.65,0,0,1,177.13,275.15ZM250,95a54,54,0,1,1-54,54A54,54,0,0,1,250,95Z" transform="translate(-113.88 -12)" />
</svg>